<?xml version="1.0" encoding="UTF-8"?>
<svg xmlns="http://www.w3.org/2000/svg" xmlns:xlink="http://www.w3.org/1999/xlink" width="1171.77pt" height="694.787pt" viewBox="0 0 1171.77 694.787" version="1.1">
<g id="surface1">
<path style=" stroke:none;fill-rule:nonzero;fill:rgb(86.299133%,1.998901%,11.399841%);fill-opacity:1;" d="M 927.359375 259.023438 C 927.707031 258.613281 928.203125 258.363281 928.738281 258.328125 C 929.460938 258.367188 930.011719 258.984375 929.972656 259.707031 C 929.972656 259.730469 929.972656 259.753906 929.96875 259.777344 C 929.933594 260.335938 929.6875 260.859375 929.277344 261.242188 C 911.023438 283.945313 897.742188 310.464844 897.742188 347.285156 C 897.742188 384.109375 911.023438 410.085938 929.277344 432.773438 C 929.679688 433.152344 929.925781 433.671875 929.96875 434.222656 C 930.050781 434.949219 929.53125 435.605469 928.808594 435.6875 C 928.785156 435.691406 928.761719 435.691406 928.738281 435.695313 C 928.203125 435.652344 927.707031 435.394531 927.359375 434.984375 L 849.546875 359.742188 C 842.523438 354.460938 841.113281 344.488281 846.394531 337.464844 C 847.292969 336.269531 848.355469 335.210938 849.546875 334.3125 L 927.359375 259.039063 Z M 927.359375 259.023438 "/>
<path style=" stroke:none;fill-rule:nonzero;fill:rgb(0%,28.999329%,59.999084%);fill-opacity:1;" d="M 987.144531 252.660156 C 956.699219 252.660156 944.796875 295.847656 944.796875 347.285156 C 944.796875 398.722656 956.691406 441.34375 987.144531 441.34375 C 1005.433594 441.34375 1021.011719 430.640625 1021.070313 421.835938 C 1021.054688 419.800781 1020.207031 417.859375 1018.71875 416.464844 C 1011.558594 410.417969 1007.1875 401.699219 1006.628906 392.339844 C 1006.71875 379.238281 1016.992188 368.464844 1030.078125 367.753906 C 1045.578125 367.753906 1054.710938 379.9375 1054.710938 395.695313 C 1054.253906 409.226563 1049.613281 422.285156 1041.421875 433.066406 C 1041.164063 433.433594 1041.023438 433.871094 1041.011719 434.320313 C 1040.929688 435.023438 1041.4375 435.660156 1042.140625 435.738281 L 1042.171875 435.742188 C 1042.730469 435.691406 1043.246094 435.417969 1043.601563 434.984375 L 1121.429688 359.742188 C 1128.453125 354.453125 1129.859375 344.472656 1124.570313 337.449219 C 1123.675781 336.261719 1122.621094 335.207031 1121.429688 334.3125 L 1043.601563 259.039063 C 1043.242188 258.613281 1042.726563 258.347656 1042.171875 258.292969 C 1041.453125 258.292969 1041.011719 258.941406 1041.011719 259.722656 C 1041.027344 260.175781 1041.167969 260.613281 1041.421875 260.988281 C 1049.605469 271.753906 1054.25 284.796875 1054.710938 298.3125 C 1054.710938 314.074219 1045.578125 326.277344 1030.078125 326.277344 C 1016.988281 325.554688 1006.71875 314.777344 1006.628906 301.664063 C 1007.191406 292.316406 1011.5625 283.605469 1018.71875 277.566406 C 1020.203125 276.164063 1021.050781 274.21875 1021.070313 272.175781 C 1021.011719 263.375 1005.433594 252.652344 987.144531 252.652344 Z M 987.144531 252.660156 "/>
<path style=" stroke:none;fill-rule:nonzero;fill:rgb(0%,28.999329%,59.999084%);fill-opacity:1;" d="M 60.945313 402.289063 C 49.566406 390.050781 43.480469 373.808594 44.019531 357.101563 C 43.671875 340.605469 49.613281 324.597656 60.636719 312.320313 C 70.492188 301.480469 84.425781 295.25 99.078125 295.132813 C 125.136719 295.175781 143.539063 313.402344 143.628906 329.175781 C 143.628906 337.601563 138.296875 344.121094 131.0625 344.140625 C 127.613281 344.203125 124.265625 342.945313 121.710938 340.621094 C 119.074219 338.0625 117.636719 334.511719 117.75 330.84375 C 117.832031 327.03125 119.417969 323.410156 122.160156 320.765625 C 117.761719 313.566406 109.75 309.386719 101.332031 309.902344 C 92.207031 310.066406 83.824219 314.96875 79.214844 322.84375 C 73.082031 333.136719 70.054688 344.980469 70.5 356.949219 C 70.066406 368.925781 73.195313 380.757813 79.496094 390.949219 C 84.289063 398.796875 92.746094 403.65625 101.9375 403.855469 C 110.359375 404.386719 118.382813 400.199219 122.757813 392.984375 C 120.015625 390.375 118.429688 386.773438 118.351563 382.988281 C 118.238281 379.304688 119.675781 375.742188 122.3125 373.167969 C 124.867188 370.847656 128.210938 369.589844 131.664063 369.644531 C 138.886719 369.644531 144.207031 376.140625 144.230469 384.550781 C 144.152344 400.390625 125.738281 418.546875 99.683594 418.597656 C 85.101563 418.621094 71.128906 412.738281 60.949219 402.292969 Z M 60.945313 402.289063 C 49.566406 390.050781 43.480469 373.808594 44.019531 357.101563 C 43.671875 340.605469 49.613281 324.597656 60.636719 312.320313 C 70.492188 301.480469 84.425781 295.25 99.078125 295.132813 C 125.136719 295.175781 143.539063 313.402344 143.628906 329.175781 C 143.628906 337.601563 138.296875 344.121094 131.0625 344.140625 C 127.613281 344.203125 124.265625 342.945313 121.710938 340.621094 C 119.074219 338.0625 117.636719 334.511719 117.75 330.84375 C 117.832031 327.03125 119.417969 323.410156 122.160156 320.765625 C 117.761719 313.566406 109.75 309.386719 101.332031 309.902344 C 92.207031 310.066406 83.824219 314.96875 79.214844 322.84375 C 73.082031 333.136719 70.054688 344.980469 70.5 356.949219 C 70.066406 368.925781 73.195313 380.757813 79.496094 390.949219 C 84.289063 398.796875 92.746094 403.65625 101.9375 403.855469 C 110.359375 404.386719 118.382813 400.199219 122.757813 392.984375 C 120.015625 390.375 118.429688 386.773438 118.351563 382.988281 C 118.238281 379.304688 119.675781 375.742188 122.3125 373.167969 C 124.867188 370.847656 128.210938 369.589844 131.664063 369.644531 C 138.886719 369.644531 144.207031 376.140625 144.230469 384.550781 C 144.152344 400.390625 125.738281 418.546875 99.683594 418.597656 C 85.101563 418.621094 71.128906 412.738281 60.949219 402.292969 Z M 60.945313 402.289063 C 49.566406 390.050781 43.480469 373.808594 44.019531 357.101563 C 43.671875 340.605469 49.613281 324.597656 60.636719 312.320313 C 70.492188 301.480469 84.425781 295.25 99.078125 295.132813 C 125.136719 295.175781 143.539063 313.402344 143.628906 329.175781 C 143.628906 337.601563 138.296875 344.121094 131.0625 344.140625 C 127.613281 344.203125 124.265625 342.945313 121.710938 340.621094 C 119.074219 338.0625 117.636719 334.511719 117.75 330.84375 C 117.832031 327.03125 119.417969 323.410156 122.160156 320.765625 C 117.761719 313.566406 109.75 309.386719 101.332031 309.902344 C 92.207031 310.066406 83.824219 314.96875 79.214844 322.84375 C 73.082031 333.136719 70.054688 344.980469 70.5 356.949219 C 70.066406 368.925781 73.195313 380.757813 79.496094 390.949219 C 84.289063 398.796875 92.746094 403.65625 101.9375 403.855469 C 110.359375 404.386719 118.382813 400.199219 122.757813 392.984375 C 120.015625 390.375 118.429688 386.773438 118.351563 382.988281 C 118.238281 379.304688 119.675781 375.742188 122.3125 373.167969 C 124.867188 370.847656 128.210938 369.589844 131.664063 369.644531 C 138.886719 369.644531 144.207031 376.140625 144.230469 384.550781 C 144.152344 400.390625 125.738281 418.546875 99.683594 418.597656 C 85.101563 418.621094 71.128906 412.738281 60.949219 402.292969 Z M 436.601563 361.398438 C 438.285156 361.371094 438.742188 360.988281 439.0625 360.445313 C 439.433594 359.453125 439.570313 358.390625 439.472656 357.339844 C 439.355469 348.621094 432.1875 341.652344 423.46875 341.769531 C 423.425781 341.769531 423.382813 341.773438 423.34375 341.773438 C 411.132813 341.773438 406.191406 351.53125 405.429688 361.390625 L 436.601563 361.390625 Z M 194.339844 375.476563 C 184.992188 375.570313 178.691406 379.96875 178.648438 388.660156 C 178.359375 395.996094 184.066406 402.179688 191.402344 402.46875 C 191.921875 402.488281 192.441406 402.480469 192.960938 402.4375 C 198.863281 402.234375 204.375 399.449219 208.042969 394.820313 L 208.042969 382.789063 C 207.832031 380.683594 206.550781 378.839844 204.652344 377.910156 C 201.503906 376.167969 197.941406 375.316406 194.34375 375.449219 Z M 550.65625 370.585938 C 550.6875 393.875 560.816406 403.886719 570.753906 403.925781 C 582.113281 403.902344 590.328125 393.882813 590.402344 374.265625 C 590.773438 365.863281 588.703125 357.535156 584.441406 350.285156 C 581.386719 345.101563 575.855469 341.878906 569.839844 341.773438 C 558.050781 341.773438 550.703125 352.4375 550.652344 370.574219 Z M 255.03125 414.925781 C 251.375 413.925781 249.042969 411.910156 249.050781 408.890625 C 249.097656 407.558594 249.429688 406.253906 250.03125 405.0625 L 250.230469 404.621094 L 250.691406 404.53125 C 252.804688 404.125 254.796875 403.246094 256.523438 401.960938 C 258.660156 400.140625 259.53125 397.636719 259.550781 390.59375 L 259.550781 355.148438 C 259.367188 349.167969 257.972656 347.085938 252.988281 346.945313 C 251.664063 346.960938 250.34375 347.097656 249.046875 347.355469 L 248.285156 347.496094 L 248.007813 346.78125 C 247.496094 345.558594 247.222656 344.246094 247.207031 342.917969 C 247.335938 335.863281 255.089844 332.253906 260.335938 330.613281 C 262.191406 330.015625 264.125 329.691406 266.074219 329.65625 C 273.222656 329.65625 277.070313 334.667969 278.734375 341.101563 C 282.691406 333.953125 289.960938 329.253906 298.105469 328.585938 C 305.304688 328.199219 311.457031 333.722656 311.84375 340.921875 C 311.855469 341.136719 311.859375 341.355469 311.863281 341.570313 C 312.117188 348.15625 306.988281 353.703125 300.40625 353.964844 C 300.394531 353.964844 300.386719 353.964844 300.375 353.964844 C 295.15625 354.078125 290.597656 350.457031 289.527344 345.351563 C 285.464844 346.679688 279.710938 351.730469 279.65625 369.1875 L 279.65625 390.582031 C 279.65625 397.597656 280.675781 400.109375 282.792969 401.90625 C 285.160156 403.273438 287.773438 404.160156 290.484375 404.519531 L 290.957031 404.609375 L 291.15625 405.054688 C 291.804688 406.328125 292.167969 407.726563 292.226563 409.152344 C 292.25 412.023438 290.085938 414.003906 286.617188 414.964844 C 281.527344 416.125 276.304688 416.601563 271.089844 416.386719 C 265.671875 416.59375 260.25 416.097656 254.960938 414.917969 Z M 325.921875 414.925781 C 322.265625 413.925781 319.914063 411.910156 319.921875 408.890625 C 319.976563 407.558594 320.316406 406.257813 320.914063 405.0625 L 321.113281 404.621094 L 321.589844 404.53125 C 323.695313 404.121094 325.679688 403.242188 327.394531 401.960938 C 329.53125 400.140625 330.410156 397.636719 330.421875 390.59375 L 330.421875 355.148438 C 330.246094 349.167969 328.855469 347.085938 323.90625 346.945313 C 322.574219 346.960938 321.253906 347.097656 319.949219 347.355469 L 319.195313 347.496094 L 318.90625 346.78125 C 318.394531 345.558594 318.121094 344.246094 318.109375 342.917969 C 318.238281 335.863281 325.992188 332.253906 331.234375 330.613281 C 333.105469 330.011719 335.054688 329.691406 337.019531 329.65625 C 344.15625 329.65625 348.011719 334.667969 349.667969 341.117188 C 353.613281 333.960938 360.882813 329.253906 369.027344 328.589844 C 376.222656 328.199219 382.367188 333.714844 382.757813 340.910156 C 382.769531 341.128906 382.777344 341.351563 382.777344 341.570313 C 383.042969 348.148438 377.925781 353.695313 371.347656 353.964844 C 371.339844 353.964844 371.328125 353.964844 371.316406 353.964844 C 366.101563 354.078125 361.542969 350.457031 360.476563 345.351563 C 356.421875 346.679688 350.632813 351.730469 350.589844 369.191406 L 350.589844 390.582031 C 350.625 397.597656 351.636719 400.109375 353.742188 401.90625 C 356.109375 403.269531 358.71875 404.160156 361.429688 404.519531 L 361.894531 404.609375 L 362.101563 405.054688 C 362.746094 406.328125 363.105469 407.726563 363.160156 409.152344 C 363.195313 412.023438 361.027344 414.003906 357.570313 414.964844 C 352.480469 416.121094 347.261719 416.601563 342.046875 416.386719 C 336.628906 416.59375 331.210938 416.101563 325.917969 414.917969 Z M 475.921875 414.925781 C 472.230469 413.902344 469.859375 411.890625 469.863281 408.855469 C 469.914063 407.53125 470.246094 406.230469 470.839844 405.046875 L 471.042969 404.636719 L 471.507813 404.546875 C 473.621094 404.136719 475.613281 403.257813 477.339844 401.976563 C 479.472656 400.160156 480.339844 397.652344 480.375 390.609375 L 480.375 344 L 467.851563 343.570313 L 467.628906 343.011719 C 467.023438 341.628906 466.695313 340.136719 466.667969 338.628906 C 466.632813 334.472656 469.96875 331.074219 474.125 331.039063 C 474.277344 331.035156 474.425781 331.039063 474.578125 331.046875 L 480.050781 331.046875 L 480.050781 325.886719 C 480.050781 313.425781 482.375 306.335938 485.546875 301.578125 C 490.417969 294 498.886719 288.785156 511.796875 288.808594 C 528.027344 288.808594 541.621094 296.351563 541.703125 308.5 C 541.90625 314.792969 536.972656 320.0625 530.675781 320.265625 C 530.585938 320.269531 530.5 320.269531 530.40625 320.269531 C 524.425781 320.195313 519.570313 315.410156 519.410156 309.429688 C 519.433594 307.246094 520.074219 305.109375 521.261719 303.277344 C 518.902344 301.609375 516.054688 300.773438 513.167969 300.902344 C 509.355469 300.511719 505.65625 302.320313 503.625 305.566406 C 501.828125 309.273438 501.027344 313.382813 501.296875 317.496094 L 501.296875 330.902344 L 522.792969 330.902344 L 523.035156 331.484375 C 523.648438 332.910156 523.96875 334.445313 523.976563 335.996094 C 524.113281 340.375 520.835938 344.109375 516.476563 344.542969 C 514.878906 344.703125 513.167969 344.703125 511.65625 344.703125 C 508.078125 344.703125 504.539063 344.449219 501.90625 344.398438 L 501.90625 390.582031 C 501.90625 397.554688 503.082031 400.078125 505.191406 401.90625 C 507.9375 403.289063 510.90625 404.171875 513.964844 404.519531 L 514.429688 404.601563 L 514.625 405.054688 C 515.175781 406.144531 515.476563 407.34375 515.511719 408.566406 C 515.511719 411.765625 512.910156 413.78125 508.976563 414.84375 C 503.441406 416.082031 497.769531 416.597656 492.105469 416.386719 C 486.667969 416.59375 481.230469 416.097656 475.917969 414.917969 Z M 731.617188 414.925781 C 727.953125 413.925781 725.585938 411.917969 725.605469 408.890625 C 725.65625 407.554688 725.992188 406.242188 726.59375 405.046875 L 726.785156 404.636719 L 727.238281 404.546875 C 729.335938 404.140625 731.3125 403.253906 733.007813 401.949219 C 735.199219 400.160156 736.046875 397.652344 736.046875 390.609375 L 736.046875 355.164063 C 735.886719 349.183594 734.519531 347.101563 729.550781 346.960938 C 728.230469 346.976563 726.910156 347.113281 725.609375 347.371094 L 724.839844 347.511719 L 724.554688 346.796875 C 724.0625 345.59375 723.800781 344.308594 723.78125 343.007813 C 723.910156 335.910156 731.664063 332.261719 736.875 330.632813 C 738.78125 330.027344 740.761719 329.707031 742.761719 329.675781 C 749.851563 329.675781 753.699219 334.753906 755.328125 341.296875 C 759.210938 334.070313 766.480469 329.296875 774.65625 328.605469 C 781.820313 328.191406 787.964844 333.664063 788.382813 340.828125 C 788.394531 341.082031 788.402344 341.339844 788.402344 341.59375 C 788.683594 348.152344 783.59375 353.699219 777.03125 353.984375 C 771.796875 354.101563 767.210938 350.488281 766.097656 345.371094 C 762.074219 346.695313 756.402344 351.738281 756.339844 369.210938 L 756.339844 390.582031 C 756.367188 397.597656 757.34375 400.128906 759.328125 401.90625 C 761.714844 403.25 764.332031 404.136719 767.042969 404.519531 L 767.511719 404.609375 L 767.714844 405.054688 C 768.363281 406.339844 768.730469 407.753906 768.792969 409.195313 C 768.816406 412.066406 766.671875 414.027344 763.238281 414.972656 C 758.167969 416.125 752.964844 416.601563 747.769531 416.386719 C 742.347656 416.59375 736.921875 416.101563 731.625 414.917969 Z M 569.84375 417.566406 C 558.410156 417.691406 547.398438 413.265625 539.234375 405.261719 C 530.820313 396.65625 526.238281 385.023438 526.519531 372.992188 C 526.195313 348.882813 545.476563 329.074219 569.585938 328.746094 C 569.929688 328.742188 570.273438 328.742188 570.617188 328.746094 C 582.238281 328.46875 593.476563 332.890625 601.792969 341.011719 C 619.402344 358.277344 619.683594 386.550781 602.417969 404.160156 C 593.855469 412.894531 582.082031 417.734375 569.851563 417.550781 Z M 382.742188 374.695313 C 382.386719 362.566406 386.699219 350.761719 394.796875 341.722656 C 403.03125 333.152344 414.5 328.445313 426.382813 328.761719 C 436.277344 328.359375 445.867188 332.246094 452.691406 339.425781 C 458.121094 345.417969 461.140625 353.207031 461.164063 361.292969 C 461.246094 365.480469 460.257813 369.617188 458.292969 373.316406 L 458.046875 373.796875 L 405.25 373.796875 C 405.085938 388.113281 416.5625 399.851563 430.882813 400.015625 C 431.5625 400.023438 432.246094 400.003906 432.925781 399.957031 C 440.976563 400.007813 448.679688 396.675781 454.15625 390.773438 L 454.71875 390.039063 L 455.460938 390.582031 C 457.628906 392.191406 458.808594 394.808594 458.582031 397.496094 C 458.535156 406.359375 448.15625 417.707031 425.15625 417.714844 C 401.730469 417.71875 382.738281 398.726563 382.738281 375.300781 C 382.738281 375.101563 382.738281 374.90625 382.742188 374.707031 Z M 687.265625 413.804688 C 685.714844 411.351563 684.652344 408.613281 684.144531 405.753906 C 683.289063 406.71875 682.277344 407.765625 680.742188 409.238281 C 674.96875 414.714844 667.308594 417.757813 659.351563 417.738281 C 651.074219 418.011719 643.101563 414.601563 637.582031 408.429688 C 630 399.402344 630.0625 387.917969 630.042969 371.636719 L 630.042969 355.933594 C 629.882813 349.582031 627.882813 347.421875 621.988281 347.25 C 621.15625 347.253906 620.320313 347.304688 619.492188 347.40625 L 618.78125 347.484375 L 618.527344 346.824219 C 618.082031 345.75 617.847656 344.601563 617.84375 343.441406 C 618.023438 335.847656 627.644531 331.792969 633.28125 330.617188 C 635.144531 330.273438 637.027344 330.070313 638.917969 330.007813 C 642.753906 329.71875 646.507813 331.246094 649.046875 334.136719 C 651.214844 337.210938 652.265625 340.929688 652.035156 344.683594 L 651.882813 371.5 C 651.394531 378.96875 652.367188 386.464844 654.757813 393.558594 C 656.6875 398.234375 661.464844 401.082031 666.496094 400.5625 C 671.957031 400.886719 677.128906 398.09375 679.855469 393.351563 C 682.382813 388.511719 683.605469 383.097656 683.394531 377.640625 L 683.394531 355.9375 C 683.230469 349.585938 681.222656 347.40625 675.335938 347.253906 C 674.503906 347.257813 673.671875 347.308594 672.84375 347.410156 L 672.132813 347.488281 L 671.863281 346.828125 C 671.417969 345.753906 671.183594 344.605469 671.171875 343.445313 C 671.367188 335.851563 680.96875 331.796875 686.644531 330.621094 C 688.507813 330.277344 690.390625 330.074219 692.28125 330.011719 C 696.121094 329.722656 699.875 331.25 702.417969 334.140625 C 704.601563 337.207031 705.667969 340.933594 705.429688 344.6875 C 705.429688 347.761719 705.132813 353.226563 705.132813 376.058594 C 705.132813 385.703125 704.976563 390.824219 704.976563 392.390625 C 705.117188 398.953125 707.34375 401.914063 713.425781 402.035156 C 714.066406 402.035156 714.742188 401.980469 715.503906 401.921875 L 716.191406 401.839844 L 716.457031 402.507813 C 716.890625 403.550781 717.125 404.664063 717.136719 405.789063 C 716.898438 413.207031 707.257813 416.171875 701.683594 417.273438 C 699.941406 417.601563 698.175781 417.796875 696.40625 417.867188 L 696.324219 417.867188 C 692.808594 418.140625 689.398438 416.605469 687.269531 413.796875 Z M 155.574219 390.132813 C 155.417969 382.269531 159.148438 374.835938 165.542969 370.257813 C 172.964844 365.3125 181.757813 362.847656 190.664063 363.210938 C 196.601563 363.128906 202.5 364.1875 208.039063 366.324219 L 208.039063 356.84375 C 207.886719 347.316406 204.285156 341.894531 193.570313 341.769531 C 190.125 341.886719 186.707031 342.484375 183.425781 343.546875 C 183.773438 344.898438 183.960938 346.285156 183.976563 347.683594 C 184.046875 350.710938 183 353.65625 181.035156 355.960938 C 178.9375 358.261719 175.945313 359.535156 172.832031 359.453125 C 166.761719 359.378906 161.898438 354.398438 161.972656 348.328125 C 161.972656 348.265625 161.972656 348.207031 161.976563 348.144531 C 162.117188 336.546875 176.167969 328.761719 194.949219 328.761719 C 209.847656 328.761719 219.210938 332.292969 224.195313 338.714844 C 228.738281 344.480469 228.945313 352.902344 228.964844 364.78125 L 228.964844 395.738281 C 229.054688 401.734375 232.449219 403.367188 239.90625 404.519531 L 240.761719 404.625 L 240.710938 405.496094 C 240.453125 412.378906 234.691406 417.765625 227.804688 417.5625 C 227.25 417.609375 226.6875 417.636719 226.132813 417.636719 C 219.578125 417.851563 213.523438 414.140625 210.738281 408.203125 C 203.871094 414.15625 195.164063 417.566406 186.078125 417.859375 C 168.753906 417.835938 155.59375 406.148438 155.570313 390.140625 Z M 155.574219 390.132813 "/>
</g>
</svg>
