<?xml version="1.0" encoding="UTF-8"?>
<svg xmlns="http://www.w3.org/2000/svg" xmlns:xlink="http://www.w3.org/1999/xlink" width="612pt" height="792pt" viewBox="0 0 612 792" version="1.1">
<g id="surface1">
<path style=" stroke:none;fill-rule:nonzero;fill:rgb(63.09967%,80.39856%,22.698975%);fill-opacity:1;" d="M 650.109375 228.328125 C 659.800781 320.554688 629.945313 618.445313 501.464844 518.449219 C 319.820313 377.054688 181.027344 558.042969 147.398438 444.960938 C 132.761719 395.75 175.738281 224.664063 361.539063 219.945313 C 534.960938 215.519531 640.425781 136.097656 650.109375 228.328125 "/>
<path style=" stroke:none;fill-rule:nonzero;fill:rgb(100%,100%,100%);fill-opacity:1;" d="M 275.414063 310.816406 C 277.171875 315.640625 279.984375 319.539063 283.882813 322.519531 C 287.746094 325.476563 292.828125 327.011719 299.230469 327.113281 C 303.191406 326.996094 307.078125 325.78125 310.914063 323.453125 C 314.664063 321.1875 317.800781 318.527344 320.335938 315.492188 L 320.910156 314.804688 L 324.523438 317.277344 L 323.964844 318.082031 C 320.199219 323.574219 315.605469 328.078125 310.191406 331.578125 C 304.65625 335.179688 298.335938 337.046875 291.308594 337.148438 C 284.421875 337.09375 278.652344 335.53125 273.984375 332.464844 C 269.34375 329.410156 265.835938 325.253906 263.511719 320.023438 C 261.164063 314.8125 260.019531 308.941406 260.007813 302.40625 C 260.070313 295.792969 261.597656 289.722656 264.578125 284.238281 C 267.566406 278.757813 271.640625 274.347656 276.839844 271.039063 C 282.035156 267.722656 287.972656 266.019531 294.613281 265.933594 C 303.4375 266.03125 310.359375 268.652344 315.316406 273.839844 C 320.171875 278.941406 322.707031 285.875 322.988281 294.585938 L 323.03125 295.601563 L 272.925781 295.601563 C 272.882813 301.046875 273.703125 306.132813 275.414063 310.816406 M 307.453125 289.882813 C 307.210938 284.867188 306.007813 280.621094 303.871094 277.160156 C 301.703125 273.6875 297.890625 271.804688 292.265625 271.660156 C 286.527344 271.855469 282.035156 273.796875 278.6875 277.453125 C 275.464844 281.023438 273.570313 285.152344 273.007813 289.882813 L 307.453125 289.882813 "/>
<path style=" stroke:none;fill-rule:nonzero;fill:rgb(100%,100%,100%);fill-opacity:1;" d="M 396.019531 271.902344 L 395.164063 272.015625 C 393.554688 272.234375 392.015625 272.871094 390.546875 273.957031 C 389.074219 275.023438 387.757813 277.589844 386.605469 280.386719 L 367.105469 335.726563 L 354.195313 335.867188 L 335.367188 285.140625 C 333.996094 281.132813 332.410156 278.136719 330.65625 276.097656 C 328.921875 274.078125 326.332031 272.222656 322.960938 271.96875 L 322.058594 271.902344 L 322.058594 267.101563 C 322.058594 267.101563 352.316406 267.136719 353.277344 267.101563 L 354.316406 267.042969 L 354.316406 271.902344 L 353.402344 271.957031 C 350.515625 272.136719 348.71875 272.617188 347.828125 273.289063 C 346.902344 273.992188 346.460938 274.953125 346.546875 276.160156 C 346.519531 276.722656 346.6875 277.6875 347.117188 278.996094 C 347.488281 280.167969 360.328125 315.347656 363.933594 325.230469 C 367.425781 315.496094 379.734375 281.21875 380.132813 279.871094 C 380.601563 278.324219 380.804688 276.976563 380.761719 275.863281 C 380.804688 274.839844 380.332031 273.957031 379.183594 273.222656 C 378.121094 272.519531 376.253906 272.074219 373.488281 271.953125 L 372.550781 271.910156 L 372.550781 267.042969 L 373.597656 267.101563 C 374.550781 267.136719 396.019531 267.101563 396.019531 267.101563 L 396.019531 271.902344 "/>
<path style=" stroke:none;fill-rule:nonzero;fill:rgb(100%,100%,100%);fill-opacity:1;" d="M 411.039063 310.816406 C 412.796875 315.640625 415.613281 319.539063 419.503906 322.519531 C 423.382813 325.476563 428.480469 327.011719 434.859375 327.113281 C 438.804688 326.996094 442.691406 325.78125 446.550781 323.453125 C 450.292969 321.1875 453.425781 318.527344 455.972656 315.492188 L 456.546875 314.804688 L 460.148438 317.277344 L 459.597656 318.082031 C 455.828125 323.574219 451.242188 328.078125 445.839844 331.578125 C 440.265625 335.179688 433.949219 337.046875 426.933594 337.148438 C 420.0625 337.09375 414.265625 335.53125 409.609375 332.464844 C 404.964844 329.410156 401.472656 325.253906 399.117188 320.023438 C 396.816406 314.8125 395.640625 308.941406 395.640625 302.40625 C 395.691406 295.792969 397.222656 289.722656 400.214844 284.238281 C 403.183594 278.757813 407.269531 274.347656 412.449219 271.039063 C 417.664063 267.722656 423.578125 266.019531 430.230469 265.933594 C 439.0625 266.03125 446.011719 268.652344 450.941406 273.839844 C 455.78125 278.941406 458.339844 285.875 458.621094 294.585938 L 458.648438 295.601563 L 408.570313 295.601563 C 408.5 301.046875 409.328125 306.132813 411.039063 310.816406 M 443.089844 289.882813 C 442.855469 284.867188 441.640625 280.621094 439.492188 277.160156 C 437.324219 273.6875 433.511719 271.804688 427.902344 271.660156 C 422.171875 271.855469 417.65625 273.796875 414.316406 277.453125 C 411.097656 281.023438 409.1875 285.152344 408.640625 289.882813 L 443.089844 289.882813 "/>
<path style=" stroke:none;fill-rule:nonzero;fill:rgb(100%,100%,100%);fill-opacity:1;" d="M 497.25 270.386719 C 501.660156 267.558594 506.558594 266.078125 511.90625 265.933594 C 513.0625 265.957031 514.519531 266.203125 516.242188 266.660156 C 517.84375 267.066406 519.222656 267.535156 520.367188 268.03125 L 520.96875 268.285156 L 520.957031 282.269531 L 511.292969 282.269531 L 511.144531 281.464844 C 510.804688 279.753906 510.210938 278.136719 509.3125 276.609375 C 508.441406 275.082031 507.058594 274.296875 505.097656 274.25 C 501.53125 274.4375 498.1875 275.691406 495.066406 278.054688 C 491.972656 280.386719 489.210938 282.765625 486.765625 285.199219 L 486.617188 324.207031 C 486.558594 326.164063 486.835938 327.605469 487.355469 328.570313 C 487.832031 329.449219 488.914063 330.148438 490.824219 330.558594 C 492.667969 330.949219 495.515625 331.15625 499.351563 331.148438 L 500.320313 331.144531 L 500.316406 335.972656 L 461.003906 335.953125 L 461.003906 331.144531 L 461.996094 331.148438 C 467.007813 331.183594 469.976563 330.667969 471.195313 329.777344 C 472.390625 328.894531 473.015625 327.113281 472.835938 324.195313 L 472.835938 280.902344 C 473.015625 277.988281 472.390625 276.207031 471.195313 275.328125 C 469.976563 274.4375 467.007813 273.921875 461.996094 273.957031 L 461.003906 273.96875 L 461.003906 269.148438 L 461.898438 269.074219 C 465.878906 268.753906 469.71875 268.382813 473.4375 267.957031 C 477.085938 267.550781 480.558594 266.917969 483.867188 266.089844 L 484.984375 265.789063 L 486.238281 279.378906 C 489.550781 275.960938 493.230469 272.96875 497.25 270.386719 "/>
<path style=" stroke:none;fill-rule:nonzero;fill:rgb(100%,100%,100%);fill-opacity:1;" d="M 578.828125 316.894531 C 579.785156 322.328125 581.824219 326.058594 584.84375 328.191406 C 587.992188 330.402344 592.359375 331.511719 597.976563 331.425781 C 600.152344 331.429688 602.367188 331.085938 604.636719 330.363281 C 606.851563 329.675781 608.742188 328.558594 610.257813 327.03125 C 611.734375 325.550781 612.515625 323.628906 612.578125 321.152344 C 612.480469 318.226563 611.183594 315.835938 608.613281 313.953125 C 605.980469 312.007813 602.695313 310.242188 598.761719 308.699219 C 594.785156 307.136719 590.796875 305.425781 586.8125 303.554688 C 582.792969 301.675781 579.402344 299.269531 576.652344 296.347656 C 573.867188 293.363281 572.441406 289.492188 572.332031 284.785156 C 572.429688 280.457031 573.792969 276.84375 576.4375 274.023438 C 579.046875 271.257813 582.265625 269.203125 586.089844 267.882813 C 589.910156 266.566406 593.726563 265.917969 597.546875 265.929688 C 601.292969 265.976563 605.019531 266.484375 608.742188 267.472656 C 612.339844 268.421875 615.839844 269.507813 619.226563 270.753906 L 619.886719 270.992188 L 619.886719 283.953125 L 613.109375 283.953125 L 612.9375 283.171875 C 612.128906 279.34375 610.335938 276.367188 607.574219 274.210938 C 604.710938 271.96875 601.183594 270.808594 596.976563 270.773438 C 593.652344 270.753906 590.660156 271.589844 587.980469 273.269531 C 585.382813 274.886719 583.996094 277.414063 583.816406 280.902344 C 583.929688 283.257813 585.207031 285.355469 587.773438 287.152344 C 590.417969 289.003906 593.699219 290.773438 597.652344 292.425781 C 601.640625 294.109375 605.605469 295.910156 609.585938 297.863281 C 613.628906 299.835938 616.980469 302.195313 619.726563 304.96875 C 622.503906 307.785156 623.953125 311.269531 624.070313 315.378906 C 623.992188 320.3125 622.773438 324.4375 620.355469 327.679688 C 617.980469 330.90625 614.816406 333.289063 610.929688 334.835938 C 607.042969 336.378906 602.816406 337.136719 598.269531 337.136719 C 593.460938 337.097656 588.582031 336.484375 583.65625 335.289063 C 578.839844 334.113281 574.785156 332.589844 571.523438 330.699219 L 571.023438 316.113281 L 578.691406 316.089844 L 578.828125 316.894531 "/>
<path style=" stroke:none;fill-rule:nonzero;fill:rgb(100%,100%,100%);fill-opacity:1;" d="M 552.75 248.542969 C 551.101563 250.230469 548.941406 251.097656 546.382813 251.160156 C 543.824219 251.097656 541.671875 250.230469 540.03125 248.542969 C 538.371094 246.867188 537.503906 244.742188 537.453125 242.25 C 537.503906 239.753906 538.371094 237.628906 540.03125 235.941406 C 541.671875 234.257813 543.824219 233.390625 546.382813 233.328125 C 548.941406 233.390625 551.101563 234.257813 552.75 235.941406 C 554.394531 237.628906 555.246094 239.753906 555.285156 242.25 C 555.246094 244.742188 554.394531 246.867188 552.75 248.542969 "/>
<path style=" stroke:none;fill-rule:nonzero;fill:rgb(100%,100%,100%);fill-opacity:1;" d="M 528.21875 273.671875 L 527.234375 273.679688 L 527.234375 268.863281 L 528.132813 268.789063 C 536.355469 268.203125 544.496094 267.277344 552.570313 266.015625 L 553.71875 265.835938 C 553.71875 265.835938 553.421875 312.425781 553.421875 319.449219 C 553.257813 324.414063 553.890625 327.453125 555.125 328.824219 C 556.3125 330.140625 559.0625 330.984375 563.730469 331.128906 L 564.683594 331.164063 L 564.683594 335.941406 L 526.917969 335.941406 L 526.941406 331.160156 L 527.898438 331.132813 C 533.265625 330.984375 536.441406 330.140625 537.773438 328.8125 C 539.128906 327.433594 539.824219 324.402344 539.632813 319.449219 L 539.632813 282.773438 C 539.796875 278.726563 539.042969 276.320313 537.699219 275.253906 C 536.332031 274.164063 533.265625 273.589844 528.21875 273.671875 "/>
<path style=" stroke:none;fill-rule:nonzero;fill:rgb(52.89917%,54.499817%,52.49939%);fill-opacity:1;" d="M 10.566406 539.089844 L 5.199219 539.089844 L 5.199219 533.847656 L 2.574219 533.847656 L 2.574219 539.089844 L -1.359375 539.089844 L -1.359375 541.472656 L 2.574219 541.472656 L 2.574219 553.195313 C 2.574219 557.285156 5.199219 558.15625 7.191406 558.15625 C 8.503906 558.15625 9.773438 557.917969 10.734375 557.484375 L 10.605469 555.058594 C 9.808594 555.507813 8.828125 555.773438 7.90625 555.773438 C 6.277344 555.773438 5.199219 555.21875 5.199219 552.4375 L 5.199219 541.472656 L 10.566406 541.472656 L 10.566406 539.089844 "/>
<path style=" stroke:none;fill-rule:nonzero;fill:rgb(52.89917%,54.499817%,52.49939%);fill-opacity:1;" d="M 30.261719 557.675781 C 30.199219 556.34375 30.070313 554.585938 30.070313 553.589844 L 30.070313 539.089844 L 27.460938 539.089844 L 27.460938 548.628906 C 27.460938 555.429688 22.355469 555.769531 21.816406 555.769531 C 17.910156 555.769531 16.761719 553.515625 16.761719 549.375 L 16.761719 539.089844 L 14.125 539.089844 L 14.125 550.890625 C 14.125 555.5 16.382813 558.164063 21.132813 558.164063 C 23.59375 558.164063 26.214844 556.730469 27.371094 554.695313 L 27.460938 554.695313 C 27.460938 555.695313 27.460938 556.6875 27.554688 557.675781 L 30.261719 557.675781 "/>
<path style=" stroke:none;fill-rule:nonzero;fill:rgb(52.89917%,54.499817%,52.49939%);fill-opacity:1;" d="M 54.789063 527.640625 L 52.171875 527.640625 L 52.171875 542.191406 L 52.074219 542.191406 C 50.367188 539.683594 47.308594 538.601563 44.851563 538.601563 C 39.050781 538.601563 34.945313 542.78125 34.945313 548.386719 C 34.945313 553.988281 39.050781 558.15625 44.851563 558.15625 C 47.308594 558.15625 50.367188 557.085938 52.074219 554.585938 L 52.171875 554.585938 L 52.171875 557.675781 L 54.789063 557.675781 Z M 37.824219 548.386719 C 37.824219 544.207031 40.519531 540.988281 44.851563 540.988281 C 49.132813 540.988281 52.28125 544.207031 52.28125 548.386719 C 52.28125 552.554688 49.132813 555.769531 44.851563 555.769531 C 40.519531 555.769531 37.824219 552.554688 37.824219 548.386719 "/>
<path style=" stroke:none;fill-rule:nonzero;fill:rgb(52.89917%,54.499817%,52.49939%);fill-opacity:1;" d="M 77.832031 549.105469 L 77.832031 547.910156 C 77.832031 542.828125 74.5625 538.652344 68.9375 538.601563 C 63.644531 538.601563 59.539063 542.789063 59.539063 548.390625 C 59.539063 553.988281 63.644531 558.164063 69.160156 558.164063 C 72.226563 558.164063 74.960938 557.015625 77.148438 554.234375 L 75.125 552.5625 C 74.09375 554.234375 71.945313 555.769531 69.160156 555.769531 C 65.457031 555.769531 62.648438 552.835938 62.324219 549.105469 Z M 62.410156 546.945313 C 62.410156 543.894531 65.496094 540.996094 68.9375 540.996094 C 72.703125 540.996094 74.960938 543.414063 74.960938 546.945313 L 62.410156 546.945313 "/>
<path style=" stroke:none;fill-rule:nonzero;fill:rgb(52.89917%,54.499817%,52.49939%);fill-opacity:1;" d="M 93.625 557.675781 L 96.257813 557.675781 L 96.257813 548.144531 C 96.257813 541.359375 100.859375 540.988281 101.503906 540.988281 C 105.113281 540.988281 106.195313 543.058594 106.195313 546.847656 L 106.195313 557.675781 L 108.808594 557.675781 L 108.808594 547.789063 C 108.808594 544.34375 110.15625 540.988281 114.054688 540.988281 C 117.679688 540.988281 118.746094 543.058594 118.746094 546.847656 L 118.746094 557.675781 L 121.375 557.675781 L 121.375 545.878906 C 121.375 541.277344 119.097656 538.601563 114.371094 538.601563 C 111.867188 538.601563 109.328125 540.082031 108.257813 542.464844 C 107.015625 539.289063 104.351563 538.601563 102.328125 538.601563 C 100.101563 538.601563 97.59375 539.761719 96.335938 541.910156 L 96.257813 541.910156 L 96.257813 539.089844 L 93.429688 539.089844 C 93.511719 540.480469 93.625 541.828125 93.625 543.21875 L 93.625 557.675781 "/>
<path style=" stroke:none;fill-rule:nonzero;fill:rgb(52.89917%,54.499817%,52.49939%);fill-opacity:1;" d="M 138.085938 546.285156 C 133.632813 546.285156 126.519531 546.675781 126.519531 552.714844 C 126.519531 556.339844 129.628906 558.15625 132.921875 558.15625 C 135.894531 558.15625 137.976563 557.132813 139.480469 554.667969 L 139.554688 554.667969 C 139.554688 555.648438 139.640625 556.769531 139.800781 557.675781 L 142.34375 557.675781 C 142.179688 556.6875 142.015625 554.9375 142.015625 553.507813 L 142.015625 545.203125 C 142.015625 540.679688 138.886719 538.601563 135.226563 538.601563 C 131.726563 538.601563 129.0625 539.566406 127.363281 541.3125 L 128.949219 543.179688 C 130.546875 541.75 132.457031 540.988281 134.628906 540.988281 C 137.84375 540.988281 139.402344 542.585938 139.402344 545.796875 L 139.402344 546.285156 Z M 139.402344 548.433594 L 139.402344 549.78125 C 139.402344 553.070313 137.574219 555.769531 133.753906 555.769531 C 131.648438 555.769531 129.386719 554.828125 129.386719 552.359375 C 129.386719 548.628906 135.378906 548.433594 138.042969 548.433594 L 139.402344 548.433594 "/>
<path style=" stroke:none;fill-rule:nonzero;fill:rgb(52.89917%,54.499817%,52.49939%);fill-opacity:1;" d="M 150.714844 527.640625 L 148.101563 527.640625 L 148.101563 557.675781 L 150.714844 557.675781 L 150.714844 547.910156 L 160.371094 557.675781 L 164.433594 557.675781 L 154.164063 547.59375 L 163.433594 539.089844 L 159.5 539.089844 L 150.714844 547.472656 L 150.714844 527.640625 "/>
<path style=" stroke:none;fill-rule:nonzero;fill:rgb(52.89917%,54.499817%,52.49939%);fill-opacity:1;" d="M 184.5625 549.105469 L 184.5625 547.910156 C 184.5625 542.828125 181.308594 538.652344 175.679688 538.601563 C 170.375 538.601563 166.28125 542.789063 166.28125 548.390625 C 166.28125 553.988281 170.375 558.164063 175.910156 558.164063 C 178.972656 558.164063 181.703125 557.015625 183.890625 554.234375 L 181.871094 552.5625 C 180.84375 554.234375 178.6875 555.769531 175.910156 555.769531 C 172.214844 555.769531 169.386719 552.835938 169.085938 549.105469 Z M 169.144531 546.945313 C 169.144531 543.894531 172.253906 540.996094 175.679688 540.996094 C 179.445313 540.996094 181.703125 543.414063 181.703125 546.945313 L 169.144531 546.945313 "/>
<path style=" stroke:none;fill-rule:nonzero;fill:rgb(52.89917%,54.499817%,52.49939%);fill-opacity:1;" d="M 201.53125 541.949219 C 200.339844 539.519531 197.910156 538.601563 195.335938 538.601563 C 191.855469 538.601563 188.46875 540.359375 188.46875 544.207031 C 188.46875 547.753906 191.964844 548.78125 193.214844 549.109375 L 195.777344 549.699219 C 197.703125 550.164063 199.308594 550.808594 199.308594 552.679688 C 199.308594 554.828125 197.074219 555.769531 194.945313 555.769531 C 192.75 555.769531 191.132813 554.667969 190.046875 552.992188 L 187.789063 554.539063 C 189.535156 557.160156 192.125 558.15625 194.945313 558.15625 C 198.554688 558.15625 202.171875 556.492188 202.171875 552.4375 C 202.171875 549.820313 200.21875 547.9375 197.644531 547.347656 L 194.96875 546.722656 C 192.550781 546.15625 191.320313 545.527344 191.320313 543.769531 C 191.320313 541.78125 193.355469 540.988281 195.179688 540.988281 C 197.074219 540.988281 198.390625 541.988281 199.199219 543.492188 L 201.53125 541.949219 "/>
<path style=" stroke:none;fill-rule:nonzero;fill:rgb(52.89917%,54.499817%,52.49939%);fill-opacity:1;" d="M 226.90625 539.089844 L 221.558594 539.089844 L 221.558594 533.847656 L 218.9375 533.847656 L 218.9375 539.089844 L 214.988281 539.089844 L 214.988281 541.472656 L 218.9375 541.472656 L 218.9375 553.195313 C 218.9375 557.285156 221.558594 558.15625 223.53125 558.15625 C 224.859375 558.15625 226.113281 557.917969 227.074219 557.484375 L 226.953125 555.058594 C 226.167969 555.507813 225.175781 555.773438 224.25 555.773438 C 222.613281 555.773438 221.558594 555.21875 221.558594 552.4375 L 221.558594 541.472656 L 226.90625 541.472656 L 226.90625 539.089844 "/>
<path style=" stroke:none;fill-rule:nonzero;fill:rgb(52.89917%,54.499817%,52.49939%);fill-opacity:1;" d="M 230.484375 557.675781 L 233.09375 557.675781 L 233.09375 548.144531 C 233.09375 541.359375 238.191406 540.988281 238.746094 540.988281 C 242.652344 540.988281 243.800781 543.257813 243.800781 547.398438 L 243.800781 557.675781 L 246.410156 557.675781 L 246.410156 545.878906 C 246.410156 541.277344 244.144531 538.601563 239.429688 538.601563 C 236.960938 538.601563 234.324219 540.050781 233.171875 542.070313 L 233.09375 542.070313 L 233.09375 527.648438 L 230.484375 527.648438 L 230.484375 557.675781 "/>
<path style=" stroke:none;fill-rule:nonzero;fill:rgb(52.89917%,54.499817%,52.49939%);fill-opacity:1;" d="M 269.902344 549.105469 L 269.902344 547.910156 C 269.902344 542.828125 266.644531 538.652344 260.992188 538.601563 C 255.714844 538.601563 251.621094 542.789063 251.621094 548.390625 C 251.621094 553.988281 255.714844 558.164063 261.230469 558.164063 C 264.292969 558.164063 267.035156 557.015625 269.214844 554.234375 L 267.203125 552.5625 C 266.152344 554.234375 264.003906 555.769531 261.230469 555.769531 C 257.535156 555.769531 254.714844 552.835938 254.410156 549.105469 Z M 254.484375 546.945313 C 254.484375 543.894531 257.574219 540.996094 260.992188 540.996094 C 264.769531 540.996094 267.035156 543.414063 267.035156 546.945313 L 254.484375 546.945313 "/>
<path style=" stroke:none;fill-rule:nonzero;fill:rgb(52.89917%,54.499817%,52.49939%);fill-opacity:1;" d="M 304.265625 527.640625 L 301.636719 527.640625 L 301.636719 542.191406 L 301.550781 542.191406 C 299.84375 539.683594 296.796875 538.601563 294.320313 538.601563 C 288.527344 538.601563 284.421875 542.78125 284.421875 548.386719 C 284.421875 553.988281 288.527344 558.15625 294.320313 558.15625 C 296.796875 558.15625 299.84375 557.085938 301.550781 554.585938 L 301.636719 554.585938 L 301.636719 557.675781 L 304.265625 557.675781 Z M 287.292969 548.386719 C 287.292969 544.207031 289.992188 540.988281 294.320313 540.988281 C 298.609375 540.988281 301.757813 544.207031 301.757813 548.386719 C 301.757813 552.554688 298.609375 555.769531 294.320313 555.769531 C 289.992188 555.769531 287.292969 552.554688 287.292969 548.386719 "/>
<path style=" stroke:none;fill-rule:nonzero;fill:rgb(52.89917%,54.499817%,52.49939%);fill-opacity:1;" d="M 313.195313 539.089844 L 310.589844 539.089844 L 310.589844 557.675781 L 313.195313 557.675781 Z M 313.796875 531.9375 C 313.796875 530.8125 312.832031 530.023438 311.878906 530.023438 C 310.933594 530.023438 309.972656 530.8125 309.972656 531.9375 C 309.972656 533.042969 310.933594 533.847656 311.878906 533.847656 C 312.832031 533.847656 313.796875 533.042969 313.796875 531.9375 "/>
<path style=" stroke:none;fill-rule:nonzero;fill:rgb(52.89917%,54.499817%,52.49939%);fill-opacity:1;" d="M 328.15625 539.089844 L 323.757813 539.089844 L 323.757813 534.308594 C 323.757813 531.609375 324.246094 529.558594 327.144531 529.558594 C 327.808594 529.558594 328.523438 529.667969 329.175781 529.828125 L 329.628906 527.445313 C 328.886719 527.277344 328.128906 527.164063 327.375 527.164063 C 323.605469 527.164063 321.144531 529.070313 321.144531 533.996094 L 321.144531 539.089844 L 317.214844 539.089844 L 317.214844 541.472656 L 321.144531 541.472656 L 321.144531 557.675781 L 323.757813 557.675781 L 323.757813 541.472656 L 328.15625 541.472656 L 328.15625 539.089844 "/>
<path style=" stroke:none;fill-rule:nonzero;fill:rgb(52.89917%,54.499817%,52.49939%);fill-opacity:1;" d="M 339.226563 539.089844 L 334.804688 539.089844 L 334.804688 534.308594 C 334.804688 531.609375 335.289063 529.558594 338.175781 529.558594 C 338.863281 529.558594 339.582031 529.667969 340.214844 529.828125 L 340.691406 527.445313 C 339.9375 527.277344 339.183594 527.164063 338.433594 527.164063 C 334.652344 527.164063 332.191406 529.070313 332.191406 533.996094 L 332.191406 539.089844 L 328.25 539.089844 L 328.25 541.472656 L 332.191406 541.472656 L 332.191406 557.675781 L 334.804688 557.675781 L 334.804688 541.472656 L 339.226563 541.472656 L 339.226563 539.089844 "/>
<path style=" stroke:none;fill-rule:nonzero;fill:rgb(52.89917%,54.499817%,52.49939%);fill-opacity:1;" d="M 359.640625 549.105469 L 359.640625 547.910156 C 359.640625 542.828125 356.378906 538.652344 350.746094 538.601563 C 345.449219 538.601563 341.355469 542.789063 341.355469 548.390625 C 341.355469 553.988281 345.449219 558.164063 350.984375 558.164063 C 354.035156 558.164063 356.773438 557.015625 358.960938 554.234375 L 356.941406 552.5625 C 355.902344 554.234375 353.765625 555.769531 350.984375 555.769531 C 347.289063 555.769531 344.46875 552.835938 344.140625 549.105469 Z M 344.222656 546.945313 C 344.222656 543.894531 347.328125 540.996094 350.746094 540.996094 C 354.507813 540.996094 356.773438 543.414063 356.773438 546.945313 L 344.222656 546.945313 "/>
<path style=" stroke:none;fill-rule:nonzero;fill:rgb(52.89917%,54.499817%,52.49939%);fill-opacity:1;" d="M 364.6875 557.675781 L 367.304688 557.675781 L 367.304688 547.1875 C 367.304688 544.6875 369.101563 541.226563 373.066406 541.226563 C 373.78125 541.226563 374.257813 541.308594 374.578125 541.4375 L 375.097656 538.84375 C 374.539063 538.695313 373.894531 538.601563 373.144531 538.601563 C 369.882813 538.601563 367.929688 540.558594 367.195313 542.539063 L 367.105469 542.539063 L 367.105469 539.089844 L 364.53125 539.089844 C 364.605469 541.789063 364.6875 543.21875 364.6875 544.890625 L 364.6875 557.675781 "/>
<path style=" stroke:none;fill-rule:nonzero;fill:rgb(52.89917%,54.499817%,52.49939%);fill-opacity:1;" d="M 394.199219 549.105469 L 394.199219 547.910156 C 394.199219 542.828125 390.9375 538.652344 385.292969 538.601563 C 380.019531 538.601563 375.933594 542.789063 375.933594 548.390625 C 375.933594 553.988281 380.019531 558.164063 385.535156 558.164063 C 388.59375 558.164063 391.332031 557.015625 393.519531 554.234375 L 391.511719 552.5625 C 390.453125 554.234375 388.316406 555.769531 385.535156 555.769531 C 381.84375 555.769531 379.023438 552.835938 378.699219 549.105469 Z M 378.785156 546.945313 C 378.785156 543.894531 381.871094 540.996094 385.292969 540.996094 C 389.082031 540.996094 391.332031 543.414063 391.332031 546.945313 L 378.785156 546.945313 "/>
<path style=" stroke:none;fill-rule:nonzero;fill:rgb(52.89917%,54.499817%,52.49939%);fill-opacity:1;" d="M 398.757813 539.089844 C 398.84375 540.4375 398.957031 542.195313 398.957031 543.183594 L 398.957031 557.675781 L 401.59375 557.675781 L 401.59375 548.148438 C 401.59375 541.359375 406.664063 540.988281 407.238281 540.988281 C 411.117188 540.988281 412.269531 543.257813 412.269531 547.398438 L 412.269531 557.675781 L 414.902344 557.675781 L 414.902344 545.882813 C 414.902344 541.277344 412.636719 538.601563 407.910156 538.601563 C 405.433594 538.601563 402.816406 540.050781 401.675781 542.0625 L 401.59375 542.0625 C 401.59375 541.078125 401.59375 540.089844 401.46875 539.089844 L 398.757813 539.089844 "/>
<path style=" stroke:none;fill-rule:nonzero;fill:rgb(52.89917%,54.499817%,52.49939%);fill-opacity:1;" d="M 436.742188 541.828125 C 434.917969 539.683594 432.453125 538.660156 429.949219 538.601563 C 423.871094 538.53125 420.097656 542.789063 420.097656 548.386719 C 420.097656 553.988281 423.871094 558.242188 429.949219 558.15625 C 432.453125 558.125 434.917969 557.078125 436.742188 554.933594 L 434.597656 553.316406 C 433.730469 554.667969 432.011719 555.773438 429.949219 555.773438 C 425.632813 555.851563 422.957031 552.640625 422.957031 548.386719 C 422.957031 544.136719 425.632813 540.921875 429.949219 540.988281 C 432.011719 540.988281 433.730469 542.109375 434.597656 543.460938 L 436.742188 541.828125 "/>
<path style=" stroke:none;fill-rule:nonzero;fill:rgb(52.89917%,54.499817%,52.49939%);fill-opacity:1;" d="M 457.527344 549.105469 L 457.527344 547.910156 C 457.527344 542.828125 454.269531 538.652344 448.636719 538.601563 C 443.339844 538.601563 439.269531 542.789063 439.269531 548.390625 C 439.269531 553.988281 443.339844 558.164063 448.863281 558.164063 C 451.925781 558.164063 454.675781 557.015625 456.851563 554.234375 L 454.828125 552.5625 C 453.789063 554.234375 451.65625 555.769531 448.863281 555.769531 C 445.179688 555.769531 442.355469 552.835938 442.03125 549.105469 Z M 442.113281 546.945313 C 442.113281 543.894531 445.21875 540.996094 448.636719 540.996094 C 452.40625 540.996094 454.675781 543.414063 454.675781 546.945313 L 442.113281 546.945313 "/>
</g>
</svg>
